<mxfile host="65bd71144e">
    <diagram id="r-e8Xfkd-kcNvf9qeX1_" name="PÃ¡gina-1">
        <mxGraphModel dx="1078" dy="790" grid="1" gridSize="10" guides="1" tooltips="1" connect="1" arrows="1" fold="1" page="1" pageScale="1" pageWidth="827" pageHeight="1169" math="0" shadow="0">
            <root>
                <mxCell id="0"/>
                <mxCell id="1" parent="0"/>
                <mxCell id="7" value="" style="edgeStyle=none;html=1;shape=link;" parent="1" source="2" target="5" edge="1">
                    <mxGeometry relative="1" as="geometry"/>
                </mxCell>
                <mxCell id="2" value="Carrera" style="swimlane;childLayout=stackLayout;horizontal=1;startSize=30;horizontalStack=0;rounded=1;fontSize=14;fontStyle=0;strokeWidth=2;resizeParent=0;resizeLast=1;shadow=0;dashed=0;align=center;fillColor=#60a917;fontColor=#ffffff;strokeColor=#2D7600;gradientColor=none;swimlaneFillColor=default;" parent="1" vertex="1">
                    <mxGeometry x="60" y="140" width="160" height="120" as="geometry"/>
                </mxCell>
                <mxCell id="3" value="+id&#10;+nombre" style="align=left;strokeColor=none;fillColor=none;spacingLeft=4;fontSize=12;verticalAlign=top;resizable=0;rotatable=0;part=1;" parent="2" vertex="1">
                    <mxGeometry y="30" width="160" height="90" as="geometry"/>
                </mxCell>
                <mxCell id="5" value="Materia" style="swimlane;childLayout=stackLayout;horizontal=1;startSize=30;horizontalStack=0;rounded=1;fontSize=14;fontStyle=0;strokeWidth=2;resizeParent=0;resizeLast=1;shadow=0;dashed=0;align=center;fillColor=#60a917;fontColor=#ffffff;strokeColor=#2D7600;swimlaneFillColor=default;" parent="1" vertex="1">
                    <mxGeometry x="60" y="410" width="160" height="120" as="geometry"/>
                </mxCell>
                <mxCell id="6" value="+id&#10;+cod_materia&#10;+nombre&#10;+id_carrera (FK)" style="align=left;strokeColor=none;fillColor=none;spacingLeft=4;fontSize=12;verticalAlign=top;resizable=0;rotatable=0;part=1;" parent="5" vertex="1">
                    <mxGeometry y="30" width="160" height="90" as="geometry"/>
                </mxCell>
                <mxCell id="12" value="Alumno" style="swimlane;childLayout=stackLayout;horizontal=1;startSize=30;horizontalStack=0;rounded=1;fontSize=14;fontStyle=0;strokeWidth=2;resizeParent=0;resizeLast=1;shadow=0;dashed=0;align=center;fillColor=#60a917;fontColor=#ffffff;strokeColor=#2D7600;swimlaneFillColor=default;" parent="1" vertex="1">
                    <mxGeometry x="630" y="410" width="160" height="120" as="geometry"/>
                </mxCell>
                <mxCell id="13" value="+id&#10;+dni&#10;+nombre&#10;+apellido&#10;+mail" style="align=left;strokeColor=none;fillColor=none;spacingLeft=4;fontSize=12;verticalAlign=top;resizable=0;rotatable=0;part=1;" parent="12" vertex="1">
                    <mxGeometry y="30" width="160" height="90" as="geometry"/>
                </mxCell>
                <mxCell id="19" style="edgeStyle=none;html=1;exitX=0;exitY=0.5;exitDx=0;exitDy=0;strokeColor=default;shape=link;" parent="1" source="16" target="6" edge="1">
                    <mxGeometry relative="1" as="geometry">
                        <Array as="points">
                            <mxPoint x="140" y="715"/>
                        </Array>
                    </mxGeometry>
                </mxCell>
                <mxCell id="15" value="Cursa" style="swimlane;childLayout=stackLayout;horizontal=1;startSize=30;horizontalStack=0;rounded=1;fontSize=14;fontStyle=0;strokeWidth=2;resizeParent=0;resizeLast=1;shadow=0;dashed=0;align=center;fillColor=#60a917;fontColor=#ffffff;strokeColor=#2D7600;swimlaneFillColor=default;" parent="1" vertex="1">
                    <mxGeometry x="310" y="630" width="160" height="140" as="geometry"/>
                </mxCell>
                <mxCell id="16" value="+id&#10;+fecha&#10;+nota1&#10;+nota2&#10;id_materia&#10;+dni" style="align=left;strokeColor=none;fillColor=none;spacingLeft=4;fontSize=12;verticalAlign=top;resizable=0;rotatable=0;part=1;" parent="15" vertex="1">
                    <mxGeometry y="30" width="160" height="110" as="geometry"/>
                </mxCell>
                <mxCell id="20" value="hasMany() - 'tiene-mats'" style="text;html=1;resizable=0;autosize=1;align=center;verticalAlign=middle;points=[];fillColor=none;strokeColor=none;rounded=0;rotation=0;" parent="1" vertex="1">
                    <mxGeometry x="155" y="380" width="140" height="20" as="geometry"/>
                </mxCell>
                <mxCell id="21" value="belongsTo() - 'pertenece-a-car'" style="text;html=1;resizable=0;autosize=1;align=center;verticalAlign=middle;points=[];fillColor=none;strokeColor=none;rounded=0;rotation=0;" parent="1" vertex="1">
                    <mxGeometry x="145" y="270" width="180" height="20" as="geometry"/>
                </mxCell>
                <mxCell id="22" value="belongsTo() - 'pertenece-a-cur'" style="text;html=1;resizable=0;autosize=1;align=center;verticalAlign=middle;points=[];fillColor=none;strokeColor=none;rounded=0;" parent="1" vertex="1">
                    <mxGeometry x="150" y="540" width="180" height="20" as="geometry"/>
                </mxCell>
                <mxCell id="23" value="hasMany() - 'tiene-curs'" style="text;html=1;resizable=0;autosize=1;align=center;verticalAlign=middle;points=[];fillColor=none;strokeColor=none;rounded=0;" parent="1" vertex="1">
                    <mxGeometry x="170" y="690" width="140" height="20" as="geometry"/>
                </mxCell>
                <mxCell id="25" value="belongsTo() - 'cur-alu'" style="text;html=1;resizable=0;autosize=1;align=center;verticalAlign=middle;points=[];fillColor=none;strokeColor=none;rounded=0;rotation=0;" parent="1" vertex="1">
                    <mxGeometry x="550" y="540" width="180" height="20" as="geometry"/>
                </mxCell>
                <mxCell id="24" value="hasMany() - 'tiene-curs'" style="text;html=1;resizable=0;autosize=1;align=center;verticalAlign=middle;points=[];fillColor=none;strokeColor=none;rounded=0;rotation=0;" parent="1" vertex="1">
                    <mxGeometry x="470" y="690" width="140" height="20" as="geometry"/>
                </mxCell>
                <mxCell id="27" value="" style="edgeStyle=none;html=1;shape=link;endArrow=none;entryX=1;entryY=0.5;entryDx=0;entryDy=0;" edge="1" parent="1" source="12" target="16">
                    <mxGeometry relative="1" as="geometry">
                        <mxPoint x="710" y="530" as="sourcePoint"/>
                        <mxPoint x="470" y="700" as="targetPoint"/>
                        <Array as="points">
                            <mxPoint x="710" y="715"/>
                        </Array>
                    </mxGeometry>
                </mxCell>
            </root>
        </mxGraphModel>
    </diagram>
</mxfile>